<?xml version="1.0" encoding="UTF-8" standalone="no"?>
<!DOCTYPE svg PUBLIC "-//W3C//DTD SVG 1.1//EN" "http://www.w3.org/Graphics/SVG/1.1/DTD/svg11.dtd">
<svg width="100%" height="100%" viewBox="0 0 531 593" version="1.1" xmlns="http://www.w3.org/2000/svg" xmlns:xlink="http://www.w3.org/1999/xlink" xml:space="preserve" xmlns:serif="http://www.serif.com/" style="fill-rule:evenodd;clip-rule:evenodd;stroke-linejoin:round;stroke-miterlimit:2;">
    <g id="_-aeb0b4ff" serif:id="#aeb0b4ff" transform="matrix(1,0,0,1,-155.959,-74.1268)">
        <path d="M382.31,112.32C401.49,105.75 424.15,109.12 439.99,122.03C443.81,125.2 447.73,128.28 451.21,131.83C463.34,145.13 471.94,161.37 477.68,178.35C480.36,186.12 484.13,193.56 485.62,201.7C487.84,202.53 490.09,203.22 492.39,203.78C489.39,206.64 486.11,209.19 482.94,211.86C480.06,214.29 477.93,217.45 475.23,220.06C474.68,214.04 477.15,208.59 479.01,203.05C468.86,204.48 459.79,209.6 450.38,213.34C442.75,216.18 435.7,220.34 428.07,223.2C419.48,227.3 411.03,231.9 403.44,237.7C399.03,235.12 394.91,232.05 390.33,229.76C378.49,223.82 367.01,217.06 354.56,212.44C347.4,209.64 340.49,206.13 333.05,204.11C330.17,203.37 327.4,202.28 324.77,200.93C325.76,192.58 328.32,184.51 330.37,176.37C333.29,167.96 335.93,159.31 340.77,151.75C346.77,142.04 352.73,131.97 361.58,124.54C367.63,119.17 375,115.63 382.31,112.32M398.53,166.66C393.68,168.29 390.17,172.23 386.99,176.04C378.28,187.59 385.77,206.93 399.92,209.72C414.58,212 427.61,196.65 425.31,182.55C424.9,178.51 423.16,174.58 420.12,171.84C414.47,166.44 405.96,164.98 398.53,166.66Z" style="fill:rgb(174,176,180);fill-rule:nonzero;"/>
        <path d="M526.8,193.12C529.81,191.48 532.15,195.02 533.76,197.11C535.79,199.2 533.17,201.58 531.83,203.2C531.72,201.19 531.89,199.05 531.08,197.16C529.82,195.65 528.25,194.43 526.8,193.12Z" style="fill:rgb(174,176,180);fill-rule:nonzero;"/>
        <path d="M210.7,212.72C229.76,205.09 250.89,204.94 271.01,207.17C278.52,207.92 285.75,210.13 293.13,211.63C296.14,212.33 299.34,212.55 302.1,214.06C298.19,233.26 301.09,253.07 299.62,272.52C299.01,278.02 299.32,283.58 298.56,289.07C297.58,296.67 297.73,304.44 299.25,311.96C299.75,311.8 300.76,311.46 301.26,311.29C301.38,313.4 299.77,314.94 298.65,316.53C294.11,322.71 287.62,326.94 282.12,332.16C275.71,336.98 270.88,343.53 264.5,348.39C256.27,355.05 250.48,364.25 242.14,370.74C235.11,362.8 228.65,354.36 221.22,346.77C208.48,330.53 193.21,316.15 182.78,298.17C178.21,290.73 176.39,282.07 174.4,273.68C173.15,263.95 173.61,253.74 177.67,244.66C183.9,230.28 195.83,218.08 210.7,212.72M237.34,247.28C228.08,249.43 220.21,256.12 216.18,264.67C212.09,271.75 211.06,280.96 214.71,288.43C217.07,294.32 219.45,300.46 224.19,304.89C227.8,308.76 232.95,310.51 237.91,311.91C243.87,313.46 250.42,314.7 256.33,312.25C262.31,310.66 266.78,306.22 271.46,302.44C276.29,297.48 278.95,290.71 280.34,284.02C281.16,275.23 279.34,265.56 273.08,258.98C269.5,255.52 266.82,250.87 261.97,248.99C254.15,246.19 245.45,245.41 237.34,247.28Z" style="fill:rgb(174,176,180);fill-rule:nonzero;"/>
        <path d="M605.66,239.71C612.13,230.04 618.16,219.94 622.51,209.09C623.16,210.58 623.27,212.48 624.56,213.62C625.14,213.41 626.31,212.99 626.89,212.78C623.38,217.19 619.92,222.19 619.47,227.98C619.19,234.25 623.64,239.17 627.4,243.66C630.12,246.93 634.73,246.76 638.51,245.93C639.22,253.62 638.36,261.31 638.04,269C637.52,278.65 633.5,287.67 628.83,295.98C625.05,303.2 620.84,310.25 615.69,316.58C608.25,325.21 600.77,333.79 593.19,342.3C583.69,351.9 573.95,361.32 565.74,372.1C556.64,363.57 547.51,355.1 538.63,346.35C531.54,339.85 524.26,333.44 518.27,325.88C518.48,328.24 519.28,330.81 518.07,333.04C515.79,337.3 512.2,340.62 508.93,344.1C519.26,351.24 526.94,361.37 536.59,369.31C541.89,374.46 548.15,378.55 553.22,383.91C538.16,397.22 525.07,412.64 509.86,425.8C499.82,435.43 490.42,445.75 479.44,454.35C471.78,461.76 463.8,468.91 455.02,474.98C441.47,484.72 427.46,493.84 412.83,501.87C409.3,503.74 406.48,506.69 402.98,508.59C398.87,507.13 395.26,504.62 391.57,502.36C386.22,499.01 380.79,495.76 375.63,492.12C374.58,492.45 373.53,492.78 372.5,493.17C363.53,488.76 355.32,482.95 346.43,478.41C342.59,477.05 340.48,472.89 336.39,472.11C332.5,468.59 329.41,464.09 324.75,461.53C324.7,457.07 320.61,454.49 317.2,452.48C315.84,446.46 311.56,441.52 306.15,438.73C303.7,433.28 304.15,426.99 302.93,421.2C302.24,421.02 300.88,420.65 300.2,420.47C299.32,421.19 298.47,421.93 297.59,422.65C287.86,412.89 276.28,405.1 267.37,394.52C264.24,390.52 259.97,387.66 256.65,383.87C256.48,380.36 260.38,378.68 262.24,376.17C269.56,367.25 277.91,359.26 286.21,351.26C295.41,343.14 304.93,335.32 313.27,326.28C316.19,323.18 319.16,320.11 322.48,317.43C335.7,306.64 349.01,295.95 362.72,285.79C375.62,275.3 390.01,266.93 403.91,257.92C410.16,264.06 418.17,267.86 425.42,272.54C424.8,272.41 423.56,272.15 422.93,272.02C425.18,273.42 427.38,274.9 429.45,276.56C437.8,283.15 447.79,287.3 456.01,294.07C457.79,295.51 459.7,296.83 461.82,297.76C463.58,298.55 465.28,299.49 466.86,300.62C472.59,305.44 477.67,310.96 482.01,317.06C488.2,323.82 493.56,331.27 499.28,338.43C510.47,327.26 522.62,316.96 532.75,304.76C539.3,297.64 546.01,290.66 552.83,283.8C560.59,276.92 567.24,268.95 574.59,261.67C580.32,256.05 585.36,249.4 592.67,245.74C596.84,243.39 601.48,242.03 605.66,239.71M397.08,319.01C388.96,319.5 381.27,322.29 373.9,325.6C366.44,328.53 360.92,334.58 355.13,339.89C349.92,344.53 345.66,350.17 342.31,356.28C339.34,362.9 337.28,369.89 335.64,376.94C335.09,384.62 335.42,392.34 335.56,400.03C336.33,405.2 337.61,410.39 340.11,415.03C343.84,424.17 349,432.91 356.3,439.65C368.17,451.2 384.42,458.08 400.96,458.57C410.2,458.98 418.94,455.55 427.69,453.1C438.11,449.44 446.67,442.12 454.56,434.61C462.88,426.31 467.88,415.41 471.58,404.41C473.75,397.15 473.72,389.5 473.53,382C473.17,374.03 469.94,366.62 467.07,359.31C464.21,353.62 460.59,348.32 456.87,343.18C450.79,336.81 444.76,329.95 436.63,326.16C433.27,324.46 429.46,323.93 426.12,322.18C422.09,320.07 417.45,319.89 413.05,319.19C407.8,318.24 402.35,318.17 397.08,319.01Z" style="fill:rgb(174,176,180);fill-rule:nonzero;"/>
        <path d="M577.66,219.23C578.74,217.86 579.81,216.5 580.89,215.13C581.63,217.03 582.48,218.88 583.29,220.76C581.37,220.39 579.49,219.89 577.66,219.23Z" style="fill:rgb(174,176,180);fill-rule:nonzero;"/>
        <path d="M321.09,218.84C331.63,222.17 341.98,226.15 351.8,231.23C363.75,236.2 374.44,243.7 386.42,248.58C383.32,250.53 379.81,251.78 376.93,254.08C368.61,260.5 359.6,265.95 351.17,272.23C343.53,278.21 335.41,283.67 328.74,290.79C323.95,295.14 318.6,298.84 313.82,303.21C315.8,295.3 314.75,287.09 315,279.03C314.52,269.25 316.9,259.65 317.18,249.92C318.02,244.66 317.68,239.3 318.63,234.06C319.1,228.94 319.26,223.72 321.09,218.84Z" style="fill:rgb(174,176,180);fill-rule:nonzero;"/>
        <path d="M455.12,231.09C460.64,228.7 465.87,225.61 471.66,223.88C468.63,228.38 464.51,231.95 460.8,235.86C453.04,243.75 445.81,252.17 437.69,259.71C432.19,255.47 425.58,252.83 420.44,248.14C431.73,241.93 443.53,236.73 455.12,231.09Z" style="fill:rgb(174,176,180);fill-rule:nonzero;"/>
        <path d="M487.86,316.1C490.55,316.41 493.27,316.47 495.98,316.33C494.34,317.56 492.7,318.8 491.09,320.07C489.9,318.84 488.72,317.59 487.86,316.1Z" style="fill:rgb(174,176,180);fill-rule:nonzero;"/>
        <path d="M223.92,413.97C229.47,407.01 236.75,401.81 243.01,395.56C252.09,404.31 260.72,413.53 269.96,422.11C274.96,425.84 278.72,431.3 284.74,433.51C276.16,444.32 264.78,452.35 255.34,462.33C248.96,469.28 241.95,475.6 235.53,482.51C229.05,488.72 223.29,495.63 216.69,501.72C205.33,511.21 196.25,523.01 185.57,533.21C182.18,529.82 179.28,525.89 177.64,521.36C174.06,511.66 174.49,501.1 175.23,490.97C176.17,480.05 181.23,470.11 186.78,460.87C193.58,450.55 200.74,440.33 209.7,431.74C215.03,426.31 218.81,419.6 223.92,413.97Z" style="fill:rgb(174,176,180);fill-rule:nonzero;"/>
        <path d="M554.81,407.82C558.49,404.6 561.55,400.74 565.11,397.38C568.48,399.06 570.34,402.45 572.79,405.15C579.3,412.29 586.71,418.59 592.94,426C601.95,435.16 609.18,445.83 616.78,456.14C621.9,463.7 627.36,471.2 630.33,479.94C634.94,492.62 637.25,507.15 632.22,520.08C628.39,530.6 620.53,539.06 612.13,546.19C600.34,554.6 586.13,558.95 571.93,561.04C556.46,563.57 540.79,560.61 525.63,557.49C518.35,555.86 511.02,554.35 503.93,551.97C509.79,530.86 511.92,508.89 511.48,487.04C510.48,475.67 512.16,464.31 511.75,452.93C511.13,446.69 517.48,443.93 521.22,440.25C533.35,430.45 543.31,418.32 554.81,407.82M553.32,453.4C543.3,455.59 535.62,464.21 532.59,473.75C530.43,481.94 533.53,490.38 537.67,497.41C542.49,505.26 552.1,508.53 560.94,508.45C566.95,507.92 572.15,504.48 577.02,501.18C585.04,495.09 587.5,483.92 585.5,474.42C583.98,469.47 581.23,464.94 577.79,461.11C571.84,454.3 562,451.89 553.32,453.4Z" style="fill:rgb(174,176,180);fill-rule:nonzero;"/>
        <path d="M462.97,491.05C473.09,482.83 484.4,475.91 493.05,466.05C495.64,471.6 493.92,478.03 494.09,483.96C494.3,492.39 493.15,500.75 492.75,509.15C491.63,514.39 492.38,519.79 491.44,525.05C490.71,532.51 489.33,539.87 487.87,547.22C482.28,545.06 476.82,542.54 470.93,541.23C462.52,539.22 454.66,535.6 446.6,532.57C437.01,528.93 428.41,523.1 418.79,519.58C424.12,514.99 430.26,511.53 436.64,508.63C445.82,503.42 454.49,497.33 462.97,491.05Z" style="fill:rgb(174,176,180);fill-rule:nonzero;"/>
        <path d="M244.64,495.93C245.56,493.65 247.23,491.8 248.7,489.87C249.95,492.63 251.39,495.29 253.03,497.84C251.03,499.99 248.99,503.12 245.65,502.77C245.2,500.52 244.24,498.25 244.64,495.93Z" style="fill:rgb(174,176,180);fill-rule:nonzero;"/>
        <path d="M341.76,522.73C346.94,516.44 353.1,511.1 359.18,505.72C363.27,508.86 368.04,510.9 372.3,513.79C376.15,516.34 380.31,518.38 384.44,520.43C378.71,524.23 372.17,526.58 366.37,530.27C357.47,534.96 348.36,539.31 339.11,543.28C332.52,545.13 325.94,548.09 318.95,547.5C325.95,538.69 334.78,531.55 341.76,522.73Z" style="fill:rgb(174,176,180);fill-rule:nonzero;"/>
        <path d="M275.74,518.65C275.44,515.94 272.99,512.4 275.58,510.26C277.09,514.47 278.98,518.71 278.49,523.31C273.19,523.82 267.68,521.11 262.74,524.06C266.23,520.59 271.59,520.96 275.74,518.65Z" style="fill:rgb(174,176,180);fill-rule:nonzero;"/>
        <path d="M437.18,550.88C452.83,554.46 468.67,558.09 483.36,564.73C485.13,565.4 484.01,567.45 483.76,568.73C480.16,578.88 476.5,589.05 471.77,598.74C467.24,607 462.57,615.25 456.5,622.5C452.68,627.68 447.39,631.44 442.47,635.49C435.55,641 427.19,644.18 418.92,647.05C413.56,649.07 407.74,649.6 402.06,649.69C392.07,648.46 381.81,646.38 373.24,640.84C365.37,635.9 357.63,630.57 351.21,623.81C344.81,617.96 340.49,610.35 335.8,603.17C330.06,594.73 325.63,585.44 322.34,575.8C321.45,573.25 321.7,570.52 321.73,567.89C326.49,568.18 330.22,564.74 334.63,563.56C344.11,560.68 353.65,557.85 362.67,553.67C364.98,552.55 367.42,551.73 370,551.53C366.71,558.43 363.95,566.39 366.22,574.03C369.08,582.08 371.91,590.75 378.52,596.57C391.2,605.75 410.15,607.98 423.2,598.3C431.2,591.69 436.9,582.22 438.48,571.92C439.27,564.86 437.86,557.87 437.18,550.88Z" style="fill:rgb(174,176,180);fill-rule:nonzero;"/>
    </g>
    <g id="_-149ff6ff" serif:id="#149ff6ff" transform="matrix(1,0,0,1,-155.959,-74.1268)">
        <path d="M563.62,95.05C561.56,84.29 571.66,72.22 582.91,74.38C589.11,75.47 594.14,80.48 597.05,85.89C598.03,88.93 597.56,92.22 597.45,95.36C595.81,97.16 594.49,99.21 593.22,101.28C591.26,104.75 587.37,106.56 583.66,107.46C579.54,107.98 575.51,106.36 571.64,105.2C567.98,102.8 565.36,99 563.62,95.05Z" style="fill:rgb(20,159,246);fill-rule:nonzero;"/>
        <path d="M522.92,112.89C526.01,108.68 531.17,107.54 536.02,106.73C539.39,107.29 542.91,108.12 545.49,110.52C549.78,115.38 552.71,122.24 550.39,128.71C546.11,132.59 542.55,138.87 536.02,138.69C528.61,139.59 521.49,134.76 518.79,127.99C517.5,122.7 519.49,116.95 522.92,112.89Z" style="fill:rgb(20,159,246);fill-rule:nonzero;"/>
        <path d="M621.27,119.25C624.22,117.31 627.93,118.63 630.62,120.41C637.19,124.41 640.24,133.27 637.71,140.49C635.53,146.71 627.04,149.8 621.61,145.78C616.19,141.91 612.4,134.69 614.35,127.99C615.32,124.29 617.88,121.03 621.27,119.25Z" style="fill:rgb(20,159,246);fill-rule:nonzero;"/>
        <path d="M580.28,141.4C588.49,138.29 599.41,144.94 599.46,154.07C599.74,156.96 599.66,160.21 597.09,162.09C592.58,166.78 585.61,165.11 580.02,163.88C577.65,163.17 576.44,160.72 575.46,158.65C573.19,152.75 573.83,144.37 580.28,141.4Z" style="fill:rgb(20,159,246);fill-rule:nonzero;"/>
        <path d="M664.39,164.56C669.94,164.02 676.31,163.39 681.06,166.95C683.3,168.9 685.19,171.34 686.41,174.06C686.85,179.21 687.69,185.08 684.25,189.45C681.65,194.3 676.47,197.29 671.03,197.53C666.35,197.6 660.86,198.4 657.12,194.91C653.29,190.6 650.49,184.66 651.86,178.8C652.81,172.17 657.89,166.26 664.39,164.56Z" style="fill:rgb(20,159,246);fill-rule:nonzero;"/>
        <path d="M626.89,212.78C631.26,210.67 636.3,210.92 640.99,211.57C645.12,212.09 648.66,214.81 650.72,218.36C653.97,223.92 654.24,230.77 651.5,236.6C650.48,238.89 649.59,241.66 647.11,242.75C644.28,243.91 641.38,244.89 638.51,245.93C634.73,246.76 630.12,246.93 627.4,243.66C623.64,239.17 619.19,234.25 619.47,227.98C619.92,222.19 623.38,217.19 626.89,212.78Z" style="fill:rgb(20,159,246);fill-rule:nonzero;"/>
        <path d="M237.34,247.28C245.45,245.41 254.15,246.19 261.97,248.99C266.82,250.87 269.5,255.52 273.08,258.98C279.34,265.56 281.16,275.23 280.34,284.02C278.95,290.71 276.29,297.48 271.46,302.44C266.78,306.22 262.31,310.66 256.33,312.25C250.42,314.7 243.87,313.46 237.91,311.91C232.95,310.51 227.8,308.76 224.19,304.89C219.45,300.46 217.07,294.32 214.71,288.43C211.06,280.96 212.09,271.75 216.18,264.67C220.21,256.12 228.08,249.43 237.34,247.28Z" style="fill:rgb(20,159,246);fill-rule:nonzero;"/>
        <path d="M397.08,319.01C402.35,318.17 407.8,318.24 413.05,319.19C417.45,319.89 422.09,320.07 426.12,322.18C429.46,323.93 433.27,324.46 436.63,326.16C444.76,329.95 450.79,336.81 456.87,343.18C460.59,348.32 464.21,353.62 467.07,359.31C469.94,366.62 473.17,374.03 473.53,382C473.72,389.5 473.75,397.15 471.58,404.41C467.88,415.41 462.88,426.31 454.56,434.61C446.67,442.12 438.11,449.44 427.69,453.1C418.94,455.55 410.2,458.98 400.96,458.57C384.42,458.08 368.17,451.2 356.3,439.65C349,432.91 343.84,424.17 340.11,415.03C337.61,410.39 336.33,405.2 335.56,400.03C335.42,392.34 335.09,384.62 335.64,376.94C337.28,369.89 339.34,362.9 342.31,356.28C345.66,350.17 349.92,344.53 355.13,339.89C360.92,334.58 366.44,328.53 373.9,325.6C381.27,322.29 388.96,319.5 397.08,319.01Z" style="fill:rgb(20,159,246);fill-rule:nonzero;"/>
        <path d="M390.63,534.38C401.61,532.45 413.12,532.92 423.71,536.52C429.76,538.87 432.73,545.15 435.43,550.61C435.87,550.68 436.74,550.81 437.18,550.88C437.86,557.87 439.27,564.86 438.48,571.92C436.9,582.22 431.2,591.69 423.2,598.3C410.15,607.98 391.2,605.75 378.52,596.57C371.91,590.75 369.08,582.08 366.22,574.03C363.95,566.39 366.71,558.43 370,551.53C373.05,547.99 374.86,543.51 378.38,540.37C381.73,537.18 386.15,535.34 390.63,534.38Z" style="fill:rgb(20,159,246);fill-rule:nonzero;"/>
    </g>
    <g id="_-2d3547ff" serif:id="#2d3547ff" transform="matrix(1,0,0,1,-155.959,-74.1268)">
        <path d="M615.06,96.15C618.68,93.67 622.36,90.85 626.83,90.16C637.05,88.57 648.34,90.68 656.18,97.77C662.38,103.29 668.53,109.74 670.55,118.03C672.71,127.97 671.78,138.89 666.88,147.89C662.28,154.19 656.02,159.22 652.18,166.11C645.44,178.26 635.63,188.29 627.98,199.82C626.09,202.87 624.09,205.86 622.51,209.09C618.16,219.94 612.13,230.04 605.66,239.71C601.48,242.03 596.84,243.39 592.67,245.74C585.36,249.4 580.32,256.05 574.59,261.67C567.24,268.95 560.59,276.92 552.83,283.8C546.01,290.66 539.3,297.64 532.75,304.76C522.62,316.96 510.47,327.26 499.28,338.43C493.56,331.27 488.2,323.82 482.01,317.06C477.67,310.96 472.59,305.44 466.86,300.62C468.62,301.54 471.14,304.05 472.98,301.93C476.85,298.15 480.08,293.75 484.1,290.1C490.32,283 497.65,277.01 503.91,269.96C510.88,263.28 517.63,256.36 524.97,250.08C534.64,240.37 544,230.34 553.62,220.58C561.42,211.43 570.79,203.82 579.33,195.39C584.15,191.13 588.45,186.3 593.56,182.36C598.91,177.89 603.57,171.23 602.72,163.94C602.64,162.1 602.46,160.26 602.3,158.43C599.1,162.9 594.59,166.32 589.57,168.51C586.95,169.7 584.02,170.62 582.18,172.98C571.41,184.95 559.4,195.75 548.87,207.96C539.67,217.08 530.76,226.49 521.69,235.73C511.24,245.23 501.58,255.54 491.46,265.38C483.29,272.91 476.39,281.68 468.7,289.68C466.33,292.31 463.98,294.96 461.82,297.76C459.7,296.83 457.79,295.51 456.01,294.07C447.79,287.3 437.8,283.15 429.45,276.56C427.38,274.9 425.18,273.42 422.93,272.02C423.56,272.15 424.8,272.41 425.42,272.54C425.87,272.97 426.76,273.83 427.21,274.26C428.33,268.08 434.04,264.39 437.69,259.71C445.81,252.17 453.04,243.75 460.8,235.86C464.51,231.95 468.63,228.38 471.66,223.88C472.76,222.53 473.99,221.29 475.23,220.06C477.93,217.45 480.06,214.29 482.94,211.86C486.11,209.19 489.39,206.64 492.39,203.78C493.44,202.75 494.48,201.71 495.52,200.66C499.51,196.66 504.91,193.37 506.53,187.63C508.17,181.12 508.29,174.34 509.68,167.79C511.09,161.75 515.41,156.92 520.44,153.52C528.05,148.17 536.06,143.33 544.56,139.53C551.92,136.3 557.2,129.87 564.32,126.23C571.57,122.44 578.32,117.8 584.97,113.05C594.65,106.81 605.57,102.72 615.06,96.15M621.27,119.25C617.88,121.03 615.32,124.29 614.35,127.99C612.4,134.69 616.19,141.91 621.61,145.78C627.04,149.8 635.53,146.71 637.71,140.49C640.24,133.27 637.19,124.41 630.62,120.41C627.93,118.63 624.22,117.31 621.27,119.25M580.28,141.4C573.83,144.37 573.19,152.75 575.46,158.65C576.44,160.72 577.65,163.17 580.02,163.88C585.61,165.11 592.58,166.78 597.09,162.09C599.66,160.21 599.74,156.96 599.46,154.07C599.41,144.94 588.49,138.29 580.28,141.4M542.5,165.65C539.46,166.89 536.87,169.26 535.13,172.02C533.08,175.81 535.38,180.19 538.4,182.68C541.06,184.89 544.52,187.46 548.17,186.31C554.96,184.7 558.88,176.01 555.43,169.89C553.28,165.01 547.08,164.03 542.5,165.65M526.8,193.12C517.51,201.37 509.16,210.6 500.16,219.15C488.93,230.6 476.7,241.02 465.64,252.63C461.13,256.77 457.35,261.62 452.79,265.72C449.24,269.51 444.19,273.17 444.01,278.82C446.14,280.02 448.16,281.4 450.1,282.89C453.8,280.04 457.63,277.3 460.95,274C468.37,264.81 477.38,257.08 486.02,249.09C495.94,238.99 506.62,229.69 516.53,219.58C521.84,214.34 527.65,209.44 531.83,203.2C533.17,201.58 535.79,199.2 533.76,197.11C532.15,195.02 529.81,191.48 526.8,193.12M586.89,204.86C583.32,206.96 581.52,211.2 580.89,215.13C579.81,216.5 578.74,217.86 577.66,219.23C572.05,222.95 567.87,228.35 562.97,232.9C555.88,240.82 548.46,248.47 540.46,255.49C531.49,264.15 522.71,273.01 513.79,281.72C507.71,288.32 501.25,294.55 494.97,300.95C492.13,304.07 489.08,307.15 487.21,311C486.62,312.53 485.76,315.38 487.86,316.1C488.72,317.59 489.9,318.84 491.09,320.07C492.7,318.8 494.34,317.56 495.98,316.33C501.49,310.69 507.63,305.72 513.1,300.04C519.17,294.1 524.39,287.31 530.82,281.73C537.81,275.77 544.04,268.99 550.56,262.53C557.67,254.32 566.02,247.28 573.01,238.96C577.46,233.67 581.29,227.9 585.68,222.56C591.06,221.13 597.34,219.62 600.51,214.59C601.53,211.75 602.86,207.34 599.42,205.58C596.01,202.4 590.77,202.87 586.89,204.86Z" style="fill:rgb(45,53,71);fill-rule:nonzero;"/>
        <path d="M398.53,166.66C405.96,164.98 414.47,166.44 420.12,171.84C423.16,174.58 424.9,178.51 425.31,182.55C427.61,196.65 414.58,212 399.92,209.72C385.77,206.93 378.28,187.59 386.99,176.04C390.17,172.23 393.68,168.29 398.53,166.66Z" style="fill:rgb(45,53,71);fill-rule:nonzero;"/>
        <path d="M297.59,422.65C298.47,421.93 299.32,421.19 300.2,420.47C300.88,420.65 302.24,421.02 302.93,421.2C304.15,426.99 303.7,433.28 306.15,438.73C311.56,441.52 315.84,446.46 317.2,452.48C311.48,461.19 303.13,467.6 296.14,475.21C279.25,492.95 260.61,508.91 243.81,526.73C230.53,539.47 217.88,552.83 204.47,565.45C200.28,569.35 196.36,573.76 193.96,579.01C193.31,580.63 192.55,583.25 194.54,584.26C196.28,585.73 198.77,586.23 200.46,584.37C207.35,578.33 214.25,572.25 220.34,565.38C230.85,555.59 240.83,545.25 251.02,535.13C254.86,531.37 258.46,527.33 262.74,524.06C267.68,521.11 273.19,523.82 278.49,523.31C278.98,518.71 277.09,514.47 275.58,510.26C281.43,505.25 287.18,500.13 292.62,494.67C300.59,488.33 307.34,480.66 314.61,473.56C318.39,469.92 321.92,465.98 324.75,461.53C329.41,464.09 332.5,468.59 336.39,472.11C333.59,475.68 330.86,479.33 327.73,482.63C314.07,495.3 301.02,508.63 288.22,522.17C281,529.62 273.69,536.99 265.86,543.82C253.12,556.42 239.73,568.33 227.26,581.21C222.08,586.25 217.1,591.66 213.88,598.21C215.72,599.92 217.91,601.52 220.52,601.6C224.3,600.5 227.19,597.61 230.06,595.04C241.48,583.75 252.69,572.23 264.25,561.09C279.68,547.27 293.79,532.06 308.39,517.39C317.98,508.34 327.14,498.86 336.56,489.63C340.15,486.16 342.97,482 346.43,478.41C355.32,482.95 363.53,488.76 372.5,493.17C367.02,496.12 363.81,501.73 359.18,505.72C353.1,511.1 346.94,516.44 341.76,522.73C334.78,531.55 325.95,538.69 318.95,547.5C313.77,553.83 307.24,558.83 301.76,564.87C299.44,567.33 297.37,570.01 294.97,572.4C282.18,584.42 270.61,597.73 257.36,609.28C252.7,613.25 249.5,619.03 243.73,621.62C238.57,623.07 233.14,622.42 227.9,621.86C222.66,621.28 218.01,618.19 214.45,614.45C207.91,605.48 199.03,598.63 191.33,590.72C184.51,583.5 177.22,576.75 170.34,569.6C166.66,565.72 164.82,560.32 164.56,555.05C165.18,550.45 170.26,548.5 173,545.2C177.33,541.35 181.55,537.38 185.57,533.21C196.25,523.01 205.33,511.21 216.69,501.72C223.29,495.63 229.05,488.72 235.53,482.51C241.95,475.6 248.96,469.28 255.34,462.33C264.78,452.35 276.16,444.32 284.74,433.51C288.66,429.49 293.23,426.17 297.59,422.65M294.94,443.08C283.39,453.79 271.27,464.01 260.93,475.95C256.4,480.18 252.49,484.98 248.7,489.87C247.23,491.8 245.56,493.65 244.64,495.93C244.24,498.25 245.2,500.52 245.65,502.77C248.99,503.12 251.03,499.99 253.03,497.84C256.22,494.38 259.99,491.56 263.4,488.34C270.81,481.09 277.79,473.41 285.26,466.23C292.66,458.85 299.18,450.68 305.65,442.49C305.62,441.21 305.63,439.93 305.55,438.67C304.81,438.6 303.33,438.47 302.59,438.41L302.45,439.41C299.32,438.77 297.2,441.44 294.94,443.08Z" style="fill:rgb(45,53,71);fill-rule:nonzero;"/>
        <path d="M553.32,453.4C562,451.89 571.84,454.3 577.79,461.11C581.23,464.94 583.98,469.47 585.5,474.42C587.5,483.92 585.04,495.09 577.02,501.18C572.15,504.48 566.95,507.92 560.94,508.45C552.1,508.53 542.49,505.26 537.67,497.41C533.53,490.38 530.43,481.94 532.59,473.75C535.62,464.21 543.3,455.59 553.32,453.4Z" style="fill:rgb(45,53,71);fill-rule:nonzero;"/>
    </g>
    <g id="_-f7f8f8ff" serif:id="#f7f8f8ff" transform="matrix(1,0,0,1,-155.959,-74.1268)">
        <path d="M357.37,105.25C378.9,89.97 408.42,86.81 432.64,97.39C436.62,99.35 440.72,101.1 444.54,103.37C454.29,110.09 463.54,117.77 470.72,127.25C478.84,137.09 484.21,148.75 489.92,160.06C493.82,167.56 496.71,175.63 498.2,183.96C498.84,187.48 499.94,190.95 499.67,194.56C497.67,196.12 494.6,197.54 495.52,200.66C494.48,201.71 493.44,202.75 492.39,203.78C490.09,203.22 487.84,202.53 485.62,201.7C484.13,193.56 480.36,186.12 477.68,178.35C471.94,161.37 463.34,145.13 451.21,131.83C447.73,128.28 443.81,125.2 439.99,122.03C424.15,109.12 401.49,105.75 382.31,112.32C375,115.63 367.63,119.17 361.58,124.54C352.73,131.97 346.77,142.04 340.77,151.75C335.93,159.31 333.29,167.96 330.37,176.37C328.32,184.51 325.76,192.58 324.77,200.93C327.4,202.28 330.17,203.37 333.05,204.11C340.49,206.13 347.4,209.64 354.56,212.44C367.01,217.06 378.49,223.82 390.33,229.76C394.91,232.05 399.03,235.12 403.44,237.7C411.03,231.9 419.48,227.3 428.07,223.2C435.7,220.34 442.75,216.18 450.38,213.34C459.79,209.6 468.86,204.48 479.01,203.05C477.15,208.59 474.68,214.04 475.23,220.06C473.99,221.29 472.76,222.53 471.66,223.88C465.87,225.61 460.64,228.7 455.12,231.09C443.53,236.73 431.73,241.93 420.44,248.14C425.58,252.83 432.19,255.47 437.69,259.71C434.04,264.39 428.33,268.08 427.21,274.26C426.76,273.83 425.87,272.97 425.42,272.54C418.17,267.86 410.16,264.06 403.91,257.92C390.01,266.93 375.62,275.3 362.72,285.79C349.01,295.95 335.7,306.64 322.48,317.43C319.16,320.11 316.19,323.18 313.27,326.28C304.93,335.32 295.41,343.14 286.21,351.26C277.91,359.26 269.56,367.25 262.24,376.17C260.38,378.68 256.48,380.36 256.65,383.87C259.97,387.66 264.24,390.52 267.37,394.52C276.28,405.1 287.86,412.89 297.59,422.65C293.23,426.17 288.66,429.49 284.74,433.51C278.72,431.3 274.96,425.84 269.96,422.11C260.72,413.53 252.09,404.31 243.01,395.56C236.75,401.81 229.47,407.01 223.92,413.97C218.81,419.6 215.03,426.31 209.7,431.74C200.74,440.33 193.58,450.55 186.78,460.87C181.23,470.11 176.17,480.05 175.23,490.97C174.49,501.1 174.06,511.66 177.64,521.36C179.28,525.89 182.18,529.82 185.57,533.21C181.55,537.38 177.33,541.35 173,545.2C171.93,544.2 170.81,543.25 169.93,542.1C164.96,534.77 160.89,526.73 158.88,518.06C157.21,512.16 156.78,506.03 156.08,499.98C156.51,492.84 158.24,485.86 160.03,478.96C162.46,467.81 167.77,457.53 173.87,447.97C184.07,431.31 198.02,417.48 211.14,403.17C215.3,397.69 220.54,393.2 225.27,388.23C227.03,386.29 229.15,384.74 231.17,383.08C225.26,376.04 218.03,370.17 212.18,363.05C202.18,351.33 191.35,340.34 182.24,327.87C174.82,317.99 166.98,308.08 162.75,296.32C159.63,287.82 156.64,279.09 155.99,270C156.08,263.99 155.53,257.88 156.97,251.98C159.18,241.98 162.54,231.96 168.75,223.69C172.57,218.26 177.61,213.9 182.27,209.24C192.08,199.97 205.21,195.45 217.94,191.81C232.93,187.59 248.62,187.63 264.05,188.19C277.87,189.72 291.57,192.23 305.16,195.11C307.62,194.43 306.97,190.89 307.91,188.94C312.9,173.15 316.59,156.62 325.31,142.34C328.67,135.65 332.4,129.01 337.75,123.69C343.33,116.6 350.31,110.8 357.37,105.25M210.7,212.72C195.83,218.08 183.9,230.28 177.67,244.66C173.61,253.74 173.15,263.95 174.4,273.68C176.39,282.07 178.21,290.73 182.78,298.17C193.21,316.15 208.48,330.53 221.22,346.77C228.65,354.36 235.11,362.8 242.14,370.74C250.48,364.25 256.27,355.05 264.5,348.39C270.88,343.53 275.71,336.98 282.12,332.16C287.62,326.94 294.11,322.71 298.65,316.53C299.77,314.94 301.38,313.4 301.26,311.29C300.76,311.46 299.75,311.8 299.25,311.96C297.73,304.44 297.58,296.67 298.56,289.07C299.32,283.58 299.01,278.02 299.62,272.52C301.09,253.07 298.19,233.26 302.1,214.06C299.34,212.55 296.14,212.33 293.13,211.63C285.75,210.13 278.52,207.92 271.01,207.17C250.89,204.94 229.76,205.09 210.7,212.72M321.09,218.84C319.26,223.72 319.1,228.94 318.63,234.06C317.68,239.3 318.02,244.66 317.18,249.92C316.9,259.65 314.52,269.25 315,279.03C314.75,287.09 315.8,295.3 313.82,303.21C318.6,298.84 323.95,295.14 328.74,290.79C335.41,283.67 343.53,278.21 351.17,272.23C359.6,265.95 368.61,260.5 376.93,254.08C379.81,251.78 383.32,250.53 386.42,248.58C374.44,243.7 363.75,236.2 351.8,231.23C341.98,226.15 331.63,222.17 321.09,218.84Z" style="fill:rgb(247,248,248);fill-rule:nonzero;"/>
        <path d="M589.57,168.51C594.59,166.32 599.1,162.9 602.3,158.43C602.46,160.26 602.64,162.1 602.72,163.94C603.57,171.23 598.91,177.89 593.56,182.36C588.45,186.3 584.15,191.13 579.33,195.39C570.79,203.82 561.42,211.43 553.62,220.58C544,230.34 534.64,240.37 524.97,250.08C517.63,256.36 510.88,263.28 503.91,269.96C497.65,277.01 490.32,283 484.1,290.1C480.08,293.75 476.85,298.15 472.98,301.93C471.14,304.05 468.62,301.54 466.86,300.62C465.28,299.49 463.58,298.55 461.82,297.76C463.98,294.96 466.33,292.31 468.7,289.68C476.39,281.68 483.29,272.91 491.46,265.38C501.58,255.54 511.24,245.23 521.69,235.73C530.76,226.49 539.67,217.08 548.87,207.96C559.4,195.75 571.41,184.95 582.18,172.98C584.02,170.62 586.95,169.7 589.57,168.51Z" style="fill:rgb(247,248,248);fill-rule:nonzero;"/>
        <path d="M542.5,165.65C547.08,164.03 553.28,165.01 555.43,169.89C558.88,176.01 554.96,184.7 548.17,186.31C544.52,187.46 541.06,184.89 538.4,182.68C535.38,180.19 533.08,175.81 535.13,172.02C536.87,169.26 539.46,166.89 542.5,165.65Z" style="fill:rgb(247,248,248);fill-rule:nonzero;"/>
        <path d="M500.16,219.15C509.16,210.6 517.51,201.37 526.8,193.12C528.25,194.43 529.82,195.65 531.08,197.16C531.89,199.05 531.72,201.19 531.83,203.2C527.65,209.44 521.84,214.34 516.53,219.58C506.62,229.69 495.94,238.99 486.02,249.09C477.38,257.08 468.37,264.81 460.95,274C457.63,277.3 453.8,280.04 450.1,282.89C448.16,281.4 446.14,280.02 444.01,278.82C444.19,273.17 449.24,269.51 452.79,265.72C457.35,261.62 461.13,256.77 465.64,252.63C476.7,241.02 488.93,230.6 500.16,219.15Z" style="fill:rgb(247,248,248);fill-rule:nonzero;"/>
        <path d="M627.98,199.82C628.62,200.94 629.13,202.22 630.31,202.9C634.85,206.16 638.95,210.34 644.42,212.02C647.07,213.32 650.17,215.19 650.72,218.36C648.66,214.81 645.12,212.09 640.99,211.57C636.3,210.92 631.26,210.67 626.89,212.78C626.31,212.99 625.14,213.41 624.56,213.62C623.27,212.48 623.16,210.58 622.51,209.09C624.09,205.86 626.09,202.87 627.98,199.82Z" style="fill:rgb(247,248,248);fill-rule:nonzero;"/>
        <path d="M586.89,204.86C590.77,202.87 596.01,202.4 599.42,205.58C602.86,207.34 601.53,211.75 600.51,214.59C597.34,219.62 591.06,221.13 585.68,222.56C581.29,227.9 577.46,233.67 573.01,238.96C566.02,247.28 557.67,254.32 550.56,262.53C544.04,268.99 537.81,275.77 530.82,281.73C524.39,287.31 519.17,294.1 513.1,300.04C507.63,305.72 501.49,310.69 495.98,316.33C493.27,316.47 490.55,316.41 487.86,316.1C485.76,315.38 486.62,312.53 487.21,311C489.08,307.15 492.13,304.07 494.97,300.95C501.25,294.55 507.71,288.32 513.79,281.72C522.71,273.01 531.49,264.15 540.46,255.49C548.46,248.47 555.88,240.82 562.97,232.9C567.87,228.35 572.05,222.95 577.66,219.23C579.49,219.89 581.37,220.39 583.29,220.76C582.48,218.88 581.63,217.03 580.89,215.13C581.52,211.2 583.32,206.96 586.89,204.86Z" style="fill:rgb(247,248,248);fill-rule:nonzero;"/>
        <path d="M647.11,242.75C649.59,241.66 650.48,238.89 651.5,236.6C651.47,242.91 653.61,248.91 654.71,255.05C656.41,267.5 654.56,280.32 649.99,291.99C647.38,300.59 642.04,307.93 637.79,315.73C627.06,330.02 616.36,344.37 604.24,357.52C599.25,363.7 593.5,369.24 587.34,374.25C584.03,377.46 580.33,380.61 578.18,384.73C583.82,391.77 590.61,397.75 596.69,404.4C606.93,415.8 617.41,427.02 626.81,439.14C633.59,448.74 639.41,459.04 644.2,469.77C648.43,480.75 651.55,492.28 652.47,504.04C652.96,517.45 648.46,530.81 640.56,541.59C627.15,560.98 605.06,573.52 581.98,577.31C570.13,579.13 557.98,579.85 546.07,578.18C531.24,577.48 516.82,573.44 502.27,570.9C498.28,578.53 496.54,587.04 492.88,594.81C488.95,603.31 485.07,611.89 479.76,619.65C471.57,633.61 460.09,645.82 446.04,653.98C434.35,660.08 421.91,665.93 408.49,666.31C403.32,667.27 398.12,666.17 392.96,665.73C385.21,664.23 377.34,662.48 370.42,658.53C359.17,651.87 347.01,645.77 338.75,635.29C330.44,627.62 325,617.57 318.63,608.37C313.49,599.57 309.12,590.31 305.08,580.96C303.31,576.66 298.91,574.36 294.97,572.4C297.37,570.01 299.44,567.33 301.76,564.87C307.24,558.83 313.77,553.83 318.95,547.5C325.94,548.09 332.52,545.13 339.11,543.28C348.36,539.31 357.47,534.96 366.37,530.27C372.17,526.58 378.71,524.23 384.44,520.43C380.31,518.38 376.15,516.34 372.3,513.79C368.04,510.9 363.27,508.86 359.18,505.72C363.81,501.73 367.02,496.12 372.5,493.17C373.53,492.78 374.58,492.45 375.63,492.12C380.79,495.76 386.22,499.01 391.57,502.36C395.26,504.62 398.87,507.13 402.98,508.59C406.48,506.69 409.3,503.74 412.83,501.87C427.46,493.84 441.47,484.72 455.02,474.98C463.8,468.91 471.78,461.76 479.44,454.35C490.42,445.75 499.82,435.43 509.86,425.8C525.07,412.64 538.16,397.22 553.22,383.91C548.15,378.55 541.89,374.46 536.59,369.31C526.94,361.37 519.26,351.24 508.93,344.1C512.2,340.62 515.79,337.3 518.07,333.04C519.28,330.81 518.48,328.24 518.27,325.88C524.26,333.44 531.54,339.85 538.63,346.35C547.51,355.1 556.64,363.57 565.74,372.1C573.95,361.32 583.69,351.9 593.19,342.3C600.77,333.79 608.25,325.21 615.69,316.58C620.84,310.25 625.05,303.2 628.83,295.98C633.5,287.67 637.52,278.65 638.04,269C638.36,261.31 639.22,253.62 638.51,245.93C641.38,244.89 644.28,243.91 647.11,242.75M554.81,407.82C543.31,418.32 533.35,430.45 521.22,440.25C517.48,443.93 511.13,446.69 511.75,452.93C512.16,464.31 510.48,475.67 511.48,487.04C511.92,508.89 509.79,530.86 503.93,551.97C511.02,554.35 518.35,555.86 525.63,557.49C540.79,560.61 556.46,563.57 571.93,561.04C586.13,558.95 600.34,554.6 612.13,546.19C620.53,539.06 628.39,530.6 632.22,520.08C637.25,507.15 634.94,492.62 630.33,479.94C627.36,471.2 621.9,463.7 616.78,456.14C609.18,445.83 601.95,435.16 592.94,426C586.71,418.59 579.3,412.29 572.79,405.15C570.34,402.45 568.48,399.06 565.11,397.38C561.55,400.74 558.49,404.6 554.81,407.82M462.97,491.05C454.49,497.33 445.82,503.42 436.64,508.63C430.26,511.53 424.12,514.99 418.79,519.58C428.41,523.1 437.01,528.93 446.6,532.57C454.66,535.6 462.52,539.22 470.93,541.23C476.82,542.54 482.28,545.06 487.87,547.22C489.33,539.87 490.71,532.51 491.44,525.05C492.38,519.79 491.63,514.39 492.75,509.15C493.15,500.75 494.3,492.39 494.09,483.96C493.92,478.03 495.64,471.6 493.05,466.05C484.4,475.91 473.09,482.83 462.97,491.05M390.63,534.38C386.15,535.34 381.73,537.18 378.38,540.37C374.86,543.51 373.05,547.99 370,551.53C367.42,551.73 364.98,552.55 362.67,553.67C353.65,557.85 344.11,560.68 334.63,563.56C330.22,564.74 326.49,568.18 321.73,567.89C321.7,570.52 321.45,573.25 322.34,575.8C325.63,585.44 330.06,594.73 335.8,603.17C340.49,610.35 344.81,617.96 351.21,623.81C357.63,630.57 365.37,635.9 373.24,640.84C381.81,646.38 392.07,648.46 402.06,649.69C407.74,649.6 413.56,649.07 418.92,647.05C427.19,644.18 435.55,641 442.47,635.49C447.39,631.44 452.68,627.68 456.5,622.5C462.57,615.25 467.24,607 471.77,598.74C476.5,589.05 480.16,578.88 483.76,568.73C484.01,567.45 485.13,565.4 483.36,564.73C468.67,558.09 452.83,554.46 437.18,550.88C436.74,550.81 435.87,550.68 435.43,550.61C432.73,545.15 429.76,538.87 423.71,536.52C413.12,532.92 401.61,532.45 390.63,534.38Z" style="fill:rgb(247,248,248);fill-rule:nonzero;"/>
        <path d="M294.94,443.08C297.2,441.44 299.32,438.77 302.45,439.41L302.59,438.41C303.33,438.47 304.81,438.6 305.55,438.67C305.63,439.93 305.62,441.21 305.65,442.49C299.18,450.68 292.66,458.85 285.26,466.23C277.79,473.41 270.81,481.09 263.4,488.34C259.99,491.56 256.22,494.38 253.03,497.84C251.39,495.29 249.95,492.63 248.7,489.87C252.49,484.98 256.4,480.18 260.93,475.95C271.27,464.01 283.39,453.79 294.94,443.08Z" style="fill:rgb(247,248,248);fill-rule:nonzero;"/>
        <path d="M296.14,475.21C303.13,467.6 311.48,461.19 317.2,452.48C320.61,454.49 324.7,457.07 324.75,461.53C321.92,465.98 318.39,469.92 314.61,473.56C307.34,480.66 300.59,488.33 292.62,494.67C287.18,500.13 281.43,505.25 275.58,510.26C272.99,512.4 275.44,515.94 275.74,518.65C271.59,520.96 266.23,520.59 262.74,524.06C258.46,527.33 254.86,531.37 251.02,535.13C240.83,545.25 230.85,555.59 220.34,565.38C214.25,572.25 207.35,578.33 200.46,584.37C198.77,586.23 196.28,585.73 194.54,584.26C192.55,583.25 193.31,580.63 193.96,579.01C196.36,573.76 200.28,569.35 204.47,565.45C217.88,552.83 230.53,539.47 243.81,526.73C260.61,508.91 279.25,492.95 296.14,475.21Z" style="fill:rgb(247,248,248);fill-rule:nonzero;"/>
        <path d="M336.39,472.11C340.48,472.89 342.59,477.05 346.43,478.41C342.97,482 340.15,486.16 336.56,489.63C327.14,498.86 317.98,508.34 308.39,517.39C293.79,532.06 279.68,547.27 264.25,561.09C252.69,572.23 241.48,583.75 230.06,595.04C227.19,597.61 224.3,600.5 220.52,601.6C217.91,601.52 215.72,599.92 213.88,598.21C217.1,591.66 222.08,586.25 227.26,581.21C239.73,568.33 253.12,556.42 265.86,543.82C273.69,536.99 281,529.62 288.22,522.17C301.02,508.63 314.07,495.3 327.73,482.63C330.86,479.33 333.59,475.68 336.39,472.11Z" style="fill:rgb(247,248,248);fill-rule:nonzero;"/>
    </g>
</svg>
